<svg xmlns="http://www.w3.org/2000/svg" id="App_Store_Badge_US_Black" width="220.92" height="73.847" data-name="App Store Badge US Black" viewBox="0 0 220.92 73.847">
    <defs>
        <style>
            .cls-1{fill:#a6a6a6}.cls-2{fill:#fff}
        </style>
    </defs>
    <path id="Background_Gray" d="M203.328 0H15.579c-.565 0-1.126.014-1.7.023a24.4 24.4 0 0 0-3.7.326 12.3 12.3 0 0 0-3.503 1.162 11.885 11.885 0 0 0-2.988 2.176A11.554 11.554 0 0 0 1.513 6.68a12.187 12.187 0 0 0-1.154 3.514 23.987 23.987 0 0 0-.331 3.7c-.017.566-.019 1.134-.028 1.7v42.669c.009.573.011 1.129.028 1.7a23.986 23.986 0 0 0 .331 3.7 12.162 12.162 0 0 0 1.154 3.516 11.461 11.461 0 0 0 2.175 2.98 11.583 11.583 0 0 0 2.988 2.176 12.371 12.371 0 0 0 3.51 1.165 24.841 24.841 0 0 0 3.7.326c.571.013 1.131.02 1.7.02h189.742c.563 0 1.139-.007 1.7-.02a24.516 24.516 0 0 0 3.692-.326 12.562 12.562 0 0 0 3.523-1.165 11.589 11.589 0 0 0 2.986-2.176 11.806 11.806 0 0 0 2.181-2.98 12.192 12.192 0 0 0 1.143-3.516 24.935 24.935 0 0 0 .343-3.7c.007-.573.007-1.129.007-1.7.014-.671.014-1.338.014-2.019V17.606c0-.676 0-1.347-.014-2.016 0-.566 0-1.134-.007-1.7a24.935 24.935 0 0 0-.343-3.7 12.218 12.218 0 0 0-1.143-3.514 11.938 11.938 0 0 0-5.167-5.169 12.494 12.494 0 0 0-3.52-1.154 24.081 24.081 0 0 0-3.692-.326c-.563-.009-1.139-.02-1.7-.023h-2z" class="cls-1" data-name="Background Gray"/>
    <path id="Background_Black" d="M13.979 70.616a71.18 71.18 0 0 1-1.669-.02 23.424 23.424 0 0 1-3.451-.3A10.863 10.863 0 0 1 5.8 69.284a9.98 9.98 0 0 1-2.579-1.877 9.823 9.823 0 0 1-1.884-2.578 10.563 10.563 0 0 1-1-3.059 22.917 22.917 0 0 1-.307-3.462c-.015-.39-.03-1.686-.03-1.686V13.974s.016-1.274.027-1.651a22.838 22.838 0 0 1 .306-3.456 10.626 10.626 0 0 1 1-3.069A9.92 9.92 0 0 1 3.21 3.217 10.275 10.275 0 0 1 5.8 1.33a10.75 10.75 0 0 1 3.052-1 23.236 23.236 0 0 1 3.463-.3L13.98 0h189.728l1.686.023a22.865 22.865 0 0 1 3.431.3 10.963 10.963 0 0 1 3.085 1.011 10.327 10.327 0 0 1 4.458 4.466 10.639 10.639 0 0 1 .988 3.044 23.993 23.993 0 0 1 .321 3.484c.005.523.005 1.084.005 1.643.015.692.015 1.351.015 2.016v38.641c0 .671 0 1.325-.015 1.985 0 .6 0 1.15-.007 1.716a23.506 23.506 0 0 1-.316 3.422 10.6 10.6 0 0 1-1 3.083 10.118 10.118 0 0 1-1.875 2.558 9.994 9.994 0 0 1-2.584 1.888 10.822 10.822 0 0 1-3.079 1.015 23.156 23.156 0 0 1-3.451.3c-.541.013-1.107.02-1.657.02h-2z" data-name="Background Black" transform="translate(1.612 1.616)"/>
    <path id="App_Store" d="M44.359 28.838h-3.432V6.593h3.321v2.78h.063a5.946 5.946 0 0 1 5.132-2.957h.19a6.407 6.407 0 0 1 5.11 2.324 9.6 9.6 0 0 1 1.928 6.21 9.652 9.652 0 0 1-1.914 6.213 6.329 6.329 0 0 1-5.057 2.32c-.1.005-.2.008-.3.008a5.663 5.663 0 0 1-4.963-2.932h-.08v8.28zm4.37-19.5c-2.623 0-4.385 2.254-4.385 5.609s1.762 5.623 4.385 5.623c2.684 0 4.418-2.207 4.418-5.623a6.518 6.518 0 0 0-1.208-4.074 3.947 3.947 0 0 0-3.211-1.53zm-22.767 19.5h-3.431V6.593h3.321v2.78h.063a5.946 5.946 0 0 1 5.132-2.957h.19a6.407 6.407 0 0 1 5.11 2.324 9.6 9.6 0 0 1 1.928 6.21 9.652 9.652 0 0 1-1.914 6.213 6.329 6.329 0 0 1-5.061 2.32c-.1.005-.2.008-.3.008a5.663 5.663 0 0 1-4.963-2.932h-.08v8.28zm4.37-19.5c-2.623 0-4.385 2.254-4.385 5.609s1.762 5.623 4.385 5.623c2.684 0 4.418-2.207 4.418-5.623a6.518 6.518 0 0 0-1.208-4.074 3.947 3.947 0 0 0-3.21-1.53zM74.057 23.69c-5.089 0-8.519-2.658-8.738-6.771h3.513c.252 2.254 2.453 3.767 5.48 3.767 2.882 0 4.973-1.49 4.973-3.542 0-1.777-1.264-2.847-4.225-3.576l-2.973-.716c-4.2-1.016-6.163-2.979-6.163-6.179 0-3.929 3.43-6.673 8.341-6.673 4.837 0 8.164 2.682 8.278 6.673h-3.465C78.875 4.409 77.012 3 74.217 3a5.63 5.63 0 0 0-3.365.953 2.994 2.994 0 0 0-1.291 2.478c0 1.616 1.206 2.573 4.164 3.3l2.526.62c4.667 1.1 6.658 3 6.658 6.355a6.247 6.247 0 0 1-2.387 5.1 10.357 10.357 0 0 1-6.465 1.884zm57.129-.174c-4.861 0-7.881-3.251-7.881-8.486 0-5.251 3.037-8.643 7.736-8.643a7.209 7.209 0 0 1 5.5 2.222 8.736 8.736 0 0 1 2.033 6.023v1.176H126.77v.208a4.353 4.353 0 0 0 4.334 4.737h.162c.118.011.237.017.355.017a3.762 3.762 0 0 0 3.5-2.368h3.258c-.454 3.01-3.414 5.114-7.193 5.114zm-.17-14.348a4.206 4.206 0 0 0-2.987 1.233 4.27 4.27 0 0 0-1.244 3.009h8.358a4.019 4.019 0 0 0-4.011-4.243h-.115zm-27.757 14.348a7.638 7.638 0 0 1-5.786-2.3 9 9 0 0 1-2.141-6.259A8.985 8.985 0 0 1 97.484 8.7a8.382 8.382 0 0 1 11.557 0 8.992 8.992 0 0 1 2.147 6.255 9 9 0 0 1-2.141 6.259 7.641 7.641 0 0 1-5.788 2.302zm0-14.3c-2.775 0-4.431 2.145-4.431 5.737s1.657 5.734 4.431 5.734 4.433-2.144 4.433-5.734-1.657-5.738-4.433-5.738zM91.742 23.4h-.172c-3.385 0-4.7-1.265-4.7-4.513V9.31h-2.435V6.593h2.431V2.639h3.446v3.954h3.179V9.31h-3.179v9.215c0 1.432.646 2.1 2.034 2.1a10.769 10.769 0 0 0 1.13-.08v2.7a9.544 9.544 0 0 1-1.734.155zM3.7 23.31H0L8.278.382h3.845L20.4 23.306h-3.764l-2.1-6.2H5.8l-2.1 6.2zM10.122 4.2L6.7 14.253h6.927L10.217 4.2zm107.327 19.108h-3.431V6.593h3.272v2.845h.08a3.982 3.982 0 0 1 3.868-3.022h.175a5.279 5.279 0 0 1 1.153.128v3.211a4.8 4.8 0 0 0-1.394-.208h-.29a3.456 3.456 0 0 0-3.432 3.848v9.914z" class="cls-2" data-name="App Store" transform="translate(63.559 32.993)"/>
    <path id="Download_on_the" d="M124.316 11.739a3.407 3.407 0 0 1-.366-.02h-.1a3.776 3.776 0 0 1-3.738-4.293 3.833 3.833 0 0 1 3.8-4.342h.034c2.322 0 3.709 1.567 3.709 4.19v.572h-5.87v.093a2.2 2.2 0 0 0 2.19 2.381H124a1.993 1.993 0 0 0 1.979-1.009h1.578a3.392 3.392 0 0 1-3.241 2.428zm-.407-7.258a2.125 2.125 0 0 0-2.127 2.154h4.2a2.006 2.006 0 0 0-2-2.154h-.072zm-39.572 7.238a3.938 3.938 0 0 1-3.92-4.32 3.938 3.938 0 1 1 7.841 0 3.938 3.938 0 0 1-3.921 4.32zm0-7.176c-1.416 0-2.228 1.041-2.228 2.856s.812 2.861 2.228 2.861S86.57 9.217 86.57 7.4s-.812-2.857-2.229-2.857zm-33.253 7.176A3.94 3.94 0 0 1 47.163 7.4a3.939 3.939 0 1 1 7.843 0 3.94 3.94 0 0 1-3.921 4.32zm0-7.176c-1.417 0-2.23 1.041-2.23 2.856s.813 2.861 2.23 2.861 2.23-1.043 2.23-2.861-.814-2.856-2.226-2.856zm-36.069 7.176A3.938 3.938 0 0 1 11.1 7.4a3.938 3.938 0 1 1 7.839 0 3.938 3.938 0 0 1-3.92 4.32zm0-7.176c-1.416 0-2.228 1.041-2.228 2.856s.812 2.861 2.228 2.861 2.23-1.043 2.23-2.861-.809-2.856-2.226-2.856zm44.226 7.166a2.513 2.513 0 0 1-2.513-2.5c0-1.476 1.1-2.357 3.092-2.481l2.253-.13v-.719c0-.886-.6-1.374-1.7-1.374-.92 0-1.551.337-1.731.924h-1.588c.166-1.424 1.5-2.343 3.4-2.343 2.072 0 3.26 1.018 3.26 2.793v5.679h-1.58V10.39H62a2.783 2.783 0 0 1-2.367 1.31h-.13a2.524 2.524 0 0 1-.258.009zM62.077 7.8l-2.03.13c-1.136.076-1.665.457-1.665 1.2 0 .72.605 1.185 1.542 1.185.065.007.131.01.2.01A1.962 1.962 0 0 0 62.077 8.5v-.7zm7.347 3.9h-.107c-2.129 0-3.451-1.646-3.451-4.3 0-2.607 1.355-4.292 3.451-4.292h.125a2.733 2.733 0 0 1 2.424 1.462h.123V0h1.641v11.558h-1.572v-1.313h-.131a2.89 2.89 0 0 1-2.503 1.455zm.358-7.117c-1.37 0-2.222 1.08-2.222 2.818 0 1.768.83 2.823 2.222 2.823s2.238-1.081 2.238-2.818-.858-2.825-2.238-2.825zM107.7 11.6c-1.812 0-2.55-.65-2.55-2.245V4.666h-1.319V3.283h1.319V1.175h1.642v2.108h1.8v1.383h-1.8v4.273c0 .866.363 1.253 1.176 1.253a5.269 5.269 0 0 0 .625-.038v1.367a5.543 5.543 0 0 1-.893.079zm4.775-.045h-1.64V0h1.627v4.581h.13a2.564 2.564 0 0 1 2.326-1.5c.069 0 .14 0 .21.009h.15a2.738 2.738 0 0 1 2.713 3.1v5.365h-1.643V6.6c0-1.309-.615-2-1.778-2-.052 0-.105-.006-.158-.006a1.939 1.939 0 0 0-1.938 2.106v4.86zm-20.374 0h-1.638v-8.31h1.578v1.321h.123a2.49 2.49 0 0 1 2.277-1.489c.068 0 .136 0 .2.008s.138-.008.206-.008a2.7 2.7 0 0 1 2.671 3.1v5.38h-1.64V6.588c0-1.345-.587-2-1.794-2h-.091A1.906 1.906 0 0 0 92.1 6.694v4.866zm-56.892 0h-1.638v-8.31h1.578v1.321h.123a2.49 2.49 0 0 1 2.277-1.489c.068 0 .136 0 .2.008s.138-.008.206-.008a2.7 2.7 0 0 1 2.671 3.1v5.38h-1.64V6.588c0-1.345-.587-2-1.794-2h-.091a1.906 1.906 0 0 0-1.894 2.107v4.865zm-11.111 0h-1.685l-2.293-8.31h1.665l1.489 6.344h.126l1.71-6.344h1.57l1.71 6.344h.13L30 3.245h1.64l-2.283 8.311h-1.7l-1.718-6.121h-.13L24.1 11.558zm20.786 0h-1.642V0h1.642v11.558zm-40.9 0H0V.543h3.979c.116-.008.234-.013.35-.013a4.871 4.871 0 0 1 4.833 5.486c0 3.522-1.889 5.542-5.183 5.542zM1.711 2.1V10h2.077q.1.006.205.006a3.464 3.464 0 0 0 3.428-3.968 3.47 3.47 0 0 0-3.438-3.943q-.1 0-.194.005z" class="cls-2" data-name="Download on the" transform="translate(65.855 15.576)"/>
    <path id="Icon" d="M10.4 40.2c-2.635 0-4.691-2.939-6.193-5.085A25.614 25.614 0 0 1 .33 25.429c-.506-2.87-.68-7.034 1.364-10.576a9.867 9.867 0 0 1 8.258-5.037h.113a11.065 11.065 0 0 1 4.045 1.044 7.569 7.569 0 0 0 2.505.726 7.767 7.767 0 0 0 2.407-.712A12.913 12.913 0 0 1 23.656 9.7a6.2 6.2 0 0 1 .644.033 9.4 9.4 0 0 1 7.369 3.984 9.091 9.091 0 0 0-4.352 7.665 8.818 8.818 0 0 0 5.39 8.122 20.207 20.207 0 0 1-2.8 5.709c-1.785 2.671-3.479 4.885-6.131 4.928h-.146a6.961 6.961 0 0 1-2.96-.739 8.141 8.141 0 0 0-3.523-.835 8.627 8.627 0 0 0-3.707.863 7.759 7.759 0 0 1-2.9.77zm5.976-30.93H16.3a8.5 8.5 0 0 1 2.112-6.206A9.13 9.13 0 0 1 24.333 0a8.948 8.948 0 0 1-2.059 6.444 7.531 7.531 0 0 1-5.898 2.826z" class="cls-2" transform="translate(18.41 16.099)"/>
</svg>
