<svg xmlns="http://www.w3.org/2000/svg" id="App_Store_Badge_US_Black" width="182.529" height="61.014" data-name="App Store Badge US Black" viewBox="0 0 182.529 61.014">
    <defs>
        <style>
            .cls-1{fill:#a6a6a6}.cls-2{fill:#fff}
        </style>
    </defs>
    <path id="Background_Gray" d="M167.993 0H12.874c-.467 0-.93.012-1.4.019a20.157 20.157 0 0 0-3.057.27 10.167 10.167 0 0 0-2.9.956 9.82 9.82 0 0 0-2.469 1.8 9.546 9.546 0 0 0-1.8 2.473A10.069 10.069 0 0 0 .3 8.422a19.819 19.819 0 0 0-.273 3.054c-.014.468-.016.937-.023 1.4v35.262c.007.474.009.932.023 1.406A19.818 19.818 0 0 0 .3 52.6a10.048 10.048 0 0 0 .953 2.9 9.469 9.469 0 0 0 1.8 2.462 9.57 9.57 0 0 0 2.469 1.8 10.221 10.221 0 0 0 2.9.962 20.523 20.523 0 0 0 3.057.27c.471.01.935.016 1.4.016H169.652c.465 0 .941-.006 1.406-.016a20.255 20.255 0 0 0 3.051-.27 10.378 10.378 0 0 0 2.911-.962 9.575 9.575 0 0 0 2.467-1.8 9.755 9.755 0 0 0 1.8-2.462 10.073 10.073 0 0 0 .944-2.9 20.6 20.6 0 0 0 .283-3.054c.006-.474.006-.933.006-1.406.012-.554.012-1.105.012-1.668V14.546c0-.559 0-1.113-.012-1.665 0-.468 0-.937-.006-1.4a20.6 20.6 0 0 0-.283-3.054 10.1 10.1 0 0 0-.944-2.9 9.863 9.863 0 0 0-4.269-4.271A10.323 10.323 0 0 0 174.1.292a19.9 19.9 0 0 0-3.051-.27c-.465-.007-.941-.016-1.406-.019h-1.653z" class="cls-1" data-name="Background Gray"/>
    <path id="Background_Black" d="M11.55 58.344c-.465 0-.918-.006-1.379-.016a19.353 19.353 0 0 1-2.851-.249 8.975 8.975 0 0 1-2.527-.836 8.246 8.246 0 0 1-2.131-1.551A8.116 8.116 0 0 1 1.1 53.563a8.728 8.728 0 0 1-.828-2.528 18.935 18.935 0 0 1-.254-2.86L0 46.782V11.546s.013-1.055.022-1.364a18.869 18.869 0 0 1 .253-2.856A8.779 8.779 0 0 1 1.1 4.791a8.2 8.2 0 0 1 1.552-2.133A8.489 8.489 0 0 1 4.791 1.1 8.882 8.882 0 0 1 7.313.269a19.2 19.2 0 0 1 2.861-.25L11.55 0h156.758l1.392.019a18.891 18.891 0 0 1 2.835.248 9.058 9.058 0 0 1 2.549.836 8.532 8.532 0 0 1 3.684 3.691 8.79 8.79 0 0 1 .816 2.515 19.825 19.825 0 0 1 .265 2.879v1.358c.012.572.012 1.116.012 1.665v31.924c0 .554 0 1.095-.012 1.64 0 .5 0 .95-.006 1.418a19.423 19.423 0 0 1-.261 2.827 8.755 8.755 0 0 1-.824 2.547 8.359 8.359 0 0 1-1.549 2.114 8.257 8.257 0 0 1-2.135 1.56 8.941 8.941 0 0 1-2.544.839 19.13 19.13 0 0 1-2.851.249c-.447.01-.915.016-1.369.016h-1.653z" data-name="Background Black" transform="translate(1.332 1.335)"/>
    <path id="App_Store" d="M36.65 23.826h-2.835V5.447h2.744v2.3h.052a4.913 4.913 0 0 1 4.24-2.447h.157a5.293 5.293 0 0 1 4.222 1.92 7.935 7.935 0 0 1 1.593 5.131 7.975 7.975 0 0 1-1.582 5.133 5.229 5.229 0 0 1-4.18 1.916c-.081 0-.164.006-.245.006a4.679 4.679 0 0 1-4.1-2.423h-.066v6.841zm3.61-16.107c-2.167 0-3.623 1.863-3.623 4.635S38.093 17 40.26 17c2.217 0 3.65-1.823 3.65-4.646a5.385 5.385 0 0 0-1-3.366 3.261 3.261 0 0 0-2.65-1.269zM21.45 23.826h-2.835V5.447h2.745v2.3h.052a4.913 4.913 0 0 1 4.24-2.447h.157a5.293 5.293 0 0 1 4.222 1.92 7.935 7.935 0 0 1 1.593 5.131 7.975 7.975 0 0 1-1.582 5.133 5.229 5.229 0 0 1-4.181 1.916c-.081 0-.164.006-.245.006a4.679 4.679 0 0 1-4.1-2.423h-.066v6.841zm3.61-16.107c-2.167 0-3.623 1.863-3.623 4.635S22.894 17 25.061 17c2.217 0 3.65-1.823 3.65-4.646a5.385 5.385 0 0 0-1-3.366 3.261 3.261 0 0 0-2.65-1.269zm36.128 11.854c-4.2 0-7.039-2.2-7.22-5.594h2.9c.208 1.862 2.027 3.112 4.528 3.112 2.381 0 4.109-1.231 4.109-2.927 0-1.469-1.044-2.352-3.491-2.954l-2.456-.592c-3.474-.839-5.092-2.462-5.092-5.105C54.468 2.267 57.3 0 61.359 0c4 0 6.745 2.216 6.839 5.513h-2.862c-.168-1.87-1.707-3.031-4.017-3.031a4.651 4.651 0 0 0-2.78.787 2.474 2.474 0 0 0-1.067 2.048c0 1.335 1 2.126 3.44 2.731L63 8.559c3.856.911 5.5 2.482 5.5 5.251a5.161 5.161 0 0 1-1.973 4.21 8.557 8.557 0 0 1-5.339 1.553zm47.2-.144c-4.016 0-6.511-2.686-6.511-7.011s2.509-7.141 6.392-7.141a5.956 5.956 0 0 1 4.545 1.836 7.218 7.218 0 0 1 1.679 4.976v.972h-9.753v.172a3.6 3.6 0 0 0 3.581 3.914h.134c.1.009.2.014.293.014a3.108 3.108 0 0 0 2.9-1.956h2.692c-.383 2.486-2.829 4.224-5.951 4.224zm-.14-11.854a3.475 3.475 0 0 0-2.468 1.019 3.528 3.528 0 0 0-1.028 2.486h6.905a3.321 3.321 0 0 0-3.314-3.506h-.095zM85.315 19.429a6.311 6.311 0 0 1-4.781-1.9 7.436 7.436 0 0 1-1.769-5.171 7.424 7.424 0 0 1 1.778-5.168 6.926 6.926 0 0 1 9.549 0 7.429 7.429 0 0 1 1.774 5.168 7.436 7.436 0 0 1-1.766 5.167 6.313 6.313 0 0 1-4.785 1.904zm0-11.816c-2.293 0-3.661 1.772-3.661 4.74s1.369 4.738 3.661 4.738 3.663-1.771 3.663-4.738-1.37-4.739-3.663-4.739zM75.8 19.337h-.142c-2.8 0-3.886-1.045-3.886-3.729V7.692h-2.01V5.447h2.008V2.18h2.847v3.267h2.626v2.245h-2.625v7.614c0 1.183.534 1.734 1.68 1.734a8.9 8.9 0 0 0 .934-.066v2.232a7.886 7.886 0 0 1-1.432.131zm-72.742-.078H0L6.839.316h3.177l6.839 18.94h-3.11l-1.732-5.121H4.792l-1.733 5.123zm5.3-15.792l-2.824 8.31h5.723L8.441 3.466zm88.68 15.791H94.2V5.447h2.7V7.8h.066a3.29 3.29 0 0 1 3.2-2.5h.144a4.362 4.362 0 0 1 .952.106V8.06a3.962 3.962 0 0 0-1.151-.172h-.241a2.855 2.855 0 0 0-2.835 3.179v8.192z" class="cls-2" data-name="App Store" transform="translate(52.513 27.26)"/>
    <path id="Download_on_the" d="M102.713 9.7a2.814 2.814 0 0 1-.3-.016h-.084a3.12 3.12 0 0 1-3.089-3.547 3.167 3.167 0 0 1 3.139-3.587h.028c1.919 0 3.064 1.294 3.064 3.462v.472h-4.85v.077a1.815 1.815 0 0 0 1.809 1.967h.02a1.647 1.647 0 0 0 1.635-.833h1.3a2.8 2.8 0 0 1-2.672 2.005zm-.337-6a1.756 1.756 0 0 0-1.757 1.779h3.469a1.657 1.657 0 0 0-1.652-1.78h-.06zM69.681 9.682a3.254 3.254 0 0 1-3.239-3.569 3.254 3.254 0 1 1 6.478 0 3.254 3.254 0 0 1-3.24 3.569zm0-5.929c-1.17 0-1.841.86-1.841 2.36s.671 2.364 1.841 2.364 1.842-.862 1.842-2.364-.668-2.36-1.839-2.36zM42.207 9.682a3.255 3.255 0 0 1-3.24-3.569 3.255 3.255 0 1 1 6.48 0 3.255 3.255 0 0 1-3.24 3.569zm0-5.929c-1.171 0-1.842.86-1.842 2.36s.672 2.364 1.842 2.364 1.842-.862 1.842-2.364-.668-2.36-1.839-2.36zm-29.8 5.929a3.254 3.254 0 0 1-3.239-3.569 3.253 3.253 0 1 1 6.477 0 3.254 3.254 0 0 1-3.238 3.569zm0-5.929c-1.17 0-1.841.86-1.841 2.36s.671 2.364 1.841 2.364 1.842-.862 1.842-2.364-.669-2.36-1.84-2.36zm36.542 5.921a2.076 2.076 0 0 1-2.076-2.068c0-1.219.907-1.947 2.555-2.05l1.862-.106v-.593c0-.732-.5-1.135-1.407-1.135-.76 0-1.281.278-1.43.763H47.14c.137-1.177 1.239-1.936 2.806-1.936 1.712 0 2.693.841 2.693 2.308v4.692h-1.306v-.965h-.107a2.3 2.3 0 0 1-1.956 1.082h-.107a2.085 2.085 0 0 1-.214.008zm2.34-3.228l-1.678.107c-.938.063-1.376.377-1.376.99 0 .595.5.979 1.274.979.054.005.108.008.163.008a1.621 1.621 0 0 0 1.617-1.51v-.573zm6.07 3.218h-.089c-1.759 0-2.851-1.36-2.851-3.55 0-2.154 1.119-3.546 2.851-3.546h.1a2.258 2.258 0 0 1 2 1.208h.1V0h1.356v9.549h-1.3V8.465h-.108a2.388 2.388 0 0 1-2.058 1.2zm.3-5.88c-1.132 0-1.835.892-1.835 2.328 0 1.46.686 2.332 1.835 2.332s1.841-.89 1.841-2.325-.7-2.334-1.845-2.334zm31.328 5.8c-1.5 0-2.107-.537-2.107-1.855V3.855h-1.09V2.713h1.09V.971h1.356v1.742h1.484v1.142h-1.488v3.531c0 .716.3 1.035.972 1.035a4.353 4.353 0 0 0 .516-.032v1.13a4.58 4.58 0 0 1-.737.069zm3.945-.037h-1.355V0h1.344v3.785h.107a2.118 2.118 0 0 1 1.922-1.237c.057 0 .116 0 .173.007h.124a2.262 2.262 0 0 1 2.241 2.564v4.429H96.13V5.45c0-1.081-.508-1.653-1.469-1.653-.043 0-.087-.005-.13-.005a1.6 1.6 0 0 0-1.6 1.746v4.013zm-16.833 0h-1.353V2.681h1.3v1.091h.1a2.057 2.057 0 0 1 1.882-1.23c.056 0 .112 0 .168.007s.114-.007.171-.007A2.235 2.235 0 0 1 80.573 5.1v4.448h-1.355V5.443c0-1.111-.485-1.651-1.483-1.651h-.075a1.575 1.575 0 0 0-1.565 1.741v4.02zm-47.005 0h-1.353V2.681h1.3v1.091h.1a2.057 2.057 0 0 1 1.882-1.23c.056 0 .112 0 .168.007s.114-.007.171-.007A2.233 2.233 0 0 1 33.568 5.1v4.448h-1.355V5.443c0-1.111-.485-1.651-1.483-1.651h-.075a1.575 1.575 0 0 0-1.565 1.739v4.02zm-9.18 0h-1.396l-1.895-6.866H18l1.23 5.241h.1l1.413-5.241h1.3l1.413 5.241h.107l1.225-5.241h1.355l-1.887 6.867H22.85L21.431 4.49h-.107L19.91 9.549zm17.174 0h-1.361V0h1.356v9.549zm-33.8 0H0V.449h3.288c.1-.007.193-.01.289-.01A4.025 4.025 0 0 1 7.57 4.971c0 2.909-1.561 4.578-4.282 4.578zM1.414 1.735v6.528H3.13q.085.005.169.005a2.862 2.862 0 0 0 2.832-3.279 2.867 2.867 0 0 0-2.84-3.258H3.13z" class="cls-2" data-name="Download on the" transform="translate(54.41 12.869)"/>
    <path id="Icon" d="M8.593 33.216c-2.177 0-3.876-2.428-5.117-4.2a21.163 21.163 0 0 1-3.2-8A13.135 13.135 0 0 1 1.4 12.272a8.152 8.152 0 0 1 6.823-4.161h.093a9.142 9.142 0 0 1 3.342.863 6.253 6.253 0 0 0 2.07.6 6.417 6.417 0 0 0 1.989-.589 10.669 10.669 0 0 1 3.828-.972 5.119 5.119 0 0 1 .532.027 7.766 7.766 0 0 1 6.088 3.292 7.511 7.511 0 0 0-3.6 6.333 7.286 7.286 0 0 0 4.453 6.71 16.7 16.7 0 0 1-2.316 4.717c-1.475 2.207-2.874 4.036-5.066 4.072h-.121a5.751 5.751 0 0 1-2.446-.61 6.726 6.726 0 0 0-2.911-.69 7.128 7.128 0 0 0-3.063.713 6.411 6.411 0 0 1-2.4.637zM13.53 7.659h-.063a7.02 7.02 0 0 1 1.745-5.127A7.543 7.543 0 0 1 20.1 0a7.393 7.393 0 0 1-1.7 5.324 6.222 6.222 0 0 1-4.87 2.335z" class="cls-2" transform="translate(15.211 13.302)"/>
</svg>
