<svg xmlns="http://www.w3.org/2000/svg" id="Group_1759" width="182.595" height="61.14" data-name="Group 1759" viewBox="0 0 182.595 61.14">
    <defs>
        <style>
            .cls-1{fill:#a6a6a6}.cls-10,.cls-2,.cls-3{fill:#fff}.cls-3{stroke:#fff;stroke-miterlimit:10;stroke-width:.2px}.cls-4{fill:url(#linear-gradient)}.cls-5{fill:url(#linear-gradient-2)}.cls-6{fill:url(#linear-gradient-3)}.cls-7{fill:url(#linear-gradient-4)}.cls-8{opacity:.2}.cls-9{opacity:.12}.cls-10{opacity:.25}
        </style>
        <linearGradient id="linear-gradient" x1=".915" x2="-.384" y1=".049" y2=".719" gradientUnits="objectBoundingBox">
            <stop offset="0" stop-color="#00a0ff"/>
            <stop offset=".01" stop-color="#00a1ff"/>
            <stop offset=".26" stop-color="#00beff"/>
            <stop offset=".51" stop-color="#00d2ff"/>
            <stop offset=".76" stop-color="#00dfff"/>
            <stop offset="1" stop-color="#00e3ff"/>
        </linearGradient>
        <linearGradient id="linear-gradient-2" x1="1.077" x2="-1.306" y1=".5" y2=".5" gradientUnits="objectBoundingBox">
            <stop offset="0" stop-color="#ffe000"/>
            <stop offset=".41" stop-color="#ffbd00"/>
            <stop offset=".78" stop-color="orange"/>
            <stop offset="1" stop-color="#ff9c00"/>
        </linearGradient>
        <linearGradient id="linear-gradient-3" x1=".862" x2="-.501" y1=".179" y2="1.947" gradientUnits="objectBoundingBox">
            <stop offset="0" stop-color="#ff3a44"/>
            <stop offset="1" stop-color="#c31162"/>
        </linearGradient>
        <linearGradient id="linear-gradient-4" x1="-.188" x2=".421" y1="-.541" y2=".249" gradientUnits="objectBoundingBox">
            <stop offset="0" stop-color="#32a071"/>
            <stop offset=".07" stop-color="#2da771"/>
            <stop offset=".48" stop-color="#15cf74"/>
            <stop offset=".8" stop-color="#06e775"/>
            <stop offset="1" stop-color="#00f076"/>
        </linearGradient>
    </defs>
    <rect id="Background_Black" width="182.595" height="61.14" data-name="Background Black" rx="9"/>
    <path id="Border_Gray" d="M175.831 61.14H6.763C3.034 61.14 0 57.712 0 53.5V7.643C0 3.429 3.034 0 6.763 0h169.068c3.729 0 6.763 3.429 6.763 7.643V53.5c.001 4.212-3.033 7.64-6.763 7.64zM6.763 1.223c-3.133 0-5.681 2.88-5.681 6.42V53.5c0 3.54 2.549 6.42 5.681 6.42h169.068c3.133 0 5.681-2.88 5.681-6.42V7.643c0-3.54-2.549-6.42-5.681-6.42z" class="cls-1" data-name="Border Gray"/>
    <path id="Google_Play" d="M44.345 20.72a4.916 4.916 0 0 1-4.563-3.058l1.986-.829a2.851 2.851 0 0 0 2.607 1.84c1.758 0 2.767-1.11 2.767-3.046v-.744h-.073A3.529 3.529 0 0 1 44.4 16.1h-.06a5.191 5.191 0 0 1 0-10.369 3.664 3.664 0 0 1 2.73 1.218h.086V6.1h2.1v9.224a5.573 5.573 0 0 1-1.436 4.134 4.771 4.771 0 0 1-3.438 1.264zm.2-12.892a3.156 3.156 0 0 0 0 6.287h-.008.012a2.9 2.9 0 0 0 2.766-3.143 2.925 2.925 0 0 0-2.766-3.144zm52.726 12.636h-2.377l2.315-5.13L93.152 6.1h2.437l2.705 6.6h.074l2.607-6.6h2.535l-6.239 14.363zm-37.933-4.312a5.069 5.069 0 0 1-5.068-5.179 4.875 4.875 0 0 1 4.866-5.179h.008a4.9 4.9 0 0 1 4.435 3.3l.257.548-6.936 2.866a2.632 2.632 0 0 0 2.41 1.573H59.416a2.978 2.978 0 0 0 2.541-1.438l1.767 1.218a5.146 5.146 0 0 1-4.288 2.291h-.1zm.013-8.352h-.134a2.837 2.837 0 0 0-2.705 3.021l4.63-1.921a2 2 0 0 0-1.791-1.1zm-26.1 8.351a5.179 5.179 0 0 1-.024-10.358h.1a5.073 5.073 0 0 1 3.6 1.487 5.21 5.21 0 0 1-3.667 8.872zm-.242-8.315a3.144 3.144 0 1 0 0 6.288c.073 0 .147 0 .22-.008a3 3 0 0 0 2.924-3.143 3.143 3.143 0 0 0-3.142-3.137zM21.9 16.151a5.179 5.179 0 0 1-.012-10.358h.085a5.078 5.078 0 0 1 3.6 1.487 5.21 5.21 0 0 1-3.673 8.871zm-.247-8.314a3.144 3.144 0 0 0 0 6.287c.077 0 .156 0 .233-.009h-.012a3 3 0 0 0 2.925-3.143 3.143 3.143 0 0 0-3.143-3.136zM8.7 16.109c-.11 0-.221 0-.331-.007s-.211.006-.315.006A8.054 8.054 0 0 1 8.053 0c.1 0 .211 0 .315.006h.069a7.708 7.708 0 0 1 5.45 2.278L12.34 3.831a5.578 5.578 0 0 0-3.893-1.572h-.091a5.849 5.849 0 0 0 0 11.7h.214a5.419 5.419 0 0 0 3.844-1.613 4.609 4.609 0 0 0 1.218-2.766H8.368V7.39l7.4-.061a7.265 7.265 0 0 1 .122 1.377 7.277 7.277 0 0 1-1.9 5.142 7.342 7.342 0 0 1-5.29 2.261zm78.83-.01a3.521 3.521 0 0 1-3.516-3.36c0-2.225 2.26-3.425 4.387-3.425h.02a5.051 5.051 0 0 1 2.356.586v-.159a2.2 2.2 0 0 0-2.438-1.962c-.058 0-.117-.007-.175-.007a2.157 2.157 0 0 0-1.9 1.129l-2.019-.841a4.243 4.243 0 0 1 3.8-2.335c.085 0 .172 0 .257.008l.06.036c2.763 0 4.619 1.695 4.619 4.217v5.861h-2.192v-1.219h-.073a3.192 3.192 0 0 1-2.694 1.47c-.077 0-.154 0-.231-.008s-.175.01-.261.01zm1.248-4.934h-.1c-1.178 0-2.437.426-2.437 1.621 0 .941 1.091 1.292 1.779 1.292l.061.036a2.764 2.764 0 0 0 2.668-2.437 4.054 4.054 0 0 0-1.971-.511zm-6.007 4.681h-2.279V.615h2.279v15.23zm-11.686 0h-2.279V.615h5.459c.113-.008.228-.012.341-.012a4.74 4.74 0 0 1 4.046 7.207 4.766 4.766 0 0 1-4.046 2.272c-.113 0-.228 0-.341-.012h-3.18v5.775zm-.012-13.111v5.191h3.18l.048.036a2.614 2.614 0 1 0 0-5.228zM53.16 15.846h-2.278V.615h2.278v15.23z" class="cls-2" data-name="Google Play" transform="translate(53.282 26.831)"/>
    <path id="GET_IT_ON" d="M3.938 7.649h-.127A3.838 3.838 0 0 1 1.117 1.1 3.674 3.674 0 0 1 3.727 0h.1a3.755 3.755 0 0 1 1.482.3 3.045 3.045 0 0 1 1.146.817l-.646.646A2.431 2.431 0 0 0 3.943.906H3.794A2.827 2.827 0 0 0 .971 3.834a2.875 2.875 0 0 0 4.874 2.108 2.31 2.31 0 0 0 .61-1.487H3.81v-.878h3.546a2.973 2.973 0 0 1 .048.548 3.312 3.312 0 0 1-.914 2.437 3.561 3.561 0 0 1-2.552 1.087zm32.7 0a3.776 3.776 0 0 1-2.68-1.106 3.949 3.949 0 0 1 0-5.422 3.776 3.776 0 0 1 5.36 0 3.931 3.931 0 0 1 0 5.422 3.776 3.776 0 0 1-2.681 1.101zm0-6.727a2.8 2.8 0 0 0-1.986.82 3.109 3.109 0 0 0 0 4.192 2.815 2.815 0 0 0 3.972 0 3.109 3.109 0 0 0 0-4.192 2.8 2.8 0 0 0-1.987-.825zm6.03 6.568h-.951V.178h1.146l3.558 5.691V.178h.939v7.31h-.975l-3.717-5.957v5.958zm-14.9 0h-.938V1.079h-2.049v-.9H29.8v.9h-2.034v6.409zm-4.167 0h-.938V.178h.937v7.31zm-6.616 0h-.939V1.079H14v-.9h5.081v.9h-2.1v6.409zm-4 0H8.72V.178h4.265v.9H9.7V3.4h3v.877h-3v2.311h3.29v.9z" class="cls-3" data-name="GET IT ON" transform="translate(53.856 14.474)"/>
    <g id="Icon" transform="translate(15.628 14.815)">
        <path id="Shape" d="M.565.085A2.437 2.437 0 0 0 0 1.791v26.953a2.437 2.437 0 0 0 .565 1.706l.085.085 15.1-15.085v-.35L.65 0z" class="cls-4" transform="translate(.008 .409)"/>
        <path id="Shape-2" d="M5 10.43L0 5.4v-.355L5 0l.11.061 5.983 3.4c1.706.963 1.706 2.547 0 3.521L5.13 10.369z" class="cls-5" data-name="Shape" transform="translate(15.755 10.462)"/>
        <path id="Shape-3" d="M20.325 5.142L15.183 0 0 15.183a1.986 1.986 0 0 0 2.534.073l17.8-10.114" class="cls-6" data-name="Shape" transform="translate(.573 15.677)"/>
        <path id="Shape-4" d="M20.337 10.535L2.534.421A1.986 1.986 0 0 0 0 .494l15.195 15.183z" class="cls-7" data-name="Shape" transform="translate(.561)"/>
        <path id="Shape-5" d="M20.178 0L2.522 10.053a2.035 2.035 0 0 1-2.437 0L0 10.138l.085.085a2.023 2.023 0 0 0 2.437 0L20.325.11z" class="cls-8" data-name="Shape" transform="translate(.573 20.709)"/>
        <path id="Shape-6" d="M.565 15.2A2.438 2.438 0 0 1 0 13.576a2.475 2.475 0 0 0 .564 1.436l.086.1-.085.085zM20.853 5.142l-.109-.109 6.093-3.449A2.25 2.25 0 0 0 28.055 0a2.141 2.141 0 0 1-1.218 1.755l-5.983 3.387z" class="cls-9" data-name="Shape" transform="translate(.008 15.677)"/>
        <path id="Shape-7" d="M3.1.577l23.749 13.5a2.266 2.266 0 0 1 1.219 1.584 2.132 2.132 0 0 0-1.219-1.755L3.1.407C1.389-.556 0 .249 0 2.2v.183C.037.419 1.4-.385 3.1.577z" class="cls-10" data-name="Shape" transform="translate(0 .014)"/>
    </g>
</svg>
