<svg xmlns="http://www.w3.org/2000/svg" width="221" height="74" viewBox="0 0 221 74">
    <defs>
        <style>
            .cls-1{fill:#a6a6a6}.cls-10,.cls-2,.cls-3{fill:#fff}.cls-3{stroke:#fff;stroke-miterlimit:10;stroke-width:.2px}.cls-4{fill:url(#linear-gradient)}.cls-5{fill:url(#linear-gradient-2)}.cls-6{fill:url(#linear-gradient-3)}.cls-7{fill:url(#linear-gradient-4)}.cls-8{opacity:.2}.cls-9{opacity:.12}.cls-10{opacity:.25}
        </style>
        <linearGradient id="linear-gradient" x1=".915" x2="-.384" y1=".049" y2=".719" gradientUnits="objectBoundingBox">
            <stop offset="0" stop-color="#00a0ff"/>
            <stop offset=".01" stop-color="#00a1ff"/>
            <stop offset=".26" stop-color="#00beff"/>
            <stop offset=".51" stop-color="#00d2ff"/>
            <stop offset=".76" stop-color="#00dfff"/>
            <stop offset="1" stop-color="#00e3ff"/>
        </linearGradient>
        <linearGradient id="linear-gradient-2" x1="1.077" x2="-1.306" y1=".5" y2=".5" gradientUnits="objectBoundingBox">
            <stop offset="0" stop-color="#ffe000"/>
            <stop offset=".41" stop-color="#ffbd00"/>
            <stop offset=".78" stop-color="orange"/>
            <stop offset="1" stop-color="#ff9c00"/>
        </linearGradient>
        <linearGradient id="linear-gradient-3" x1=".862" x2="-.501" y1=".179" y2="1.947" gradientUnits="objectBoundingBox">
            <stop offset="0" stop-color="#ff3a44"/>
            <stop offset="1" stop-color="#c31162"/>
        </linearGradient>
        <linearGradient id="linear-gradient-4" x1="-.188" x2=".421" y1="-.541" y2=".249" gradientUnits="objectBoundingBox">
            <stop offset="0" stop-color="#32a071"/>
            <stop offset=".07" stop-color="#2da771"/>
            <stop offset=".48" stop-color="#15cf74"/>
            <stop offset=".8" stop-color="#06e775"/>
            <stop offset="1" stop-color="#00f076"/>
        </linearGradient>
    </defs>
    <g id="Group_1" data-name="Group 1" transform="translate(.392 .122)">
        <rect id="Background_Black" width="221" height="74" data-name="Background Black" rx="16" transform="translate(-.392 -.122)"/>
        <path id="Border_Gray" d="M212.814 74H8.186C3.672 74 0 69.851 0 64.751v-55.5C0 4.15 3.672 0 8.186 0h204.628C217.328 0 221 4.15 221 9.251v55.5c0 5.1-3.672 9.249-8.186 9.249zM8.186 1.48c-3.792 0-6.876 3.486-6.876 7.771v55.5c0 4.285 3.085 7.771 6.876 7.771h204.628c3.791 0 6.876-3.486 6.876-7.771v-55.5c0-4.285-3.085-7.771-6.876-7.771z" class="cls-1" data-name="Border Gray" transform="translate(-.392 -.122)"/>
        <path id="Google_Play" d="M53.672 25.078a5.951 5.951 0 0 1-5.523-3.7l2.4-1a3.451 3.451 0 0 0 3.159 2.222c2.128 0 3.349-1.344 3.349-3.687v-.9h-.089a4.271 4.271 0 0 1-3.232 1.475h-.072a6.282 6.282 0 0 1 0-12.55 4.435 4.435 0 0 1 3.3 1.475h.1V7.381H59.6v11.164a6.745 6.745 0 0 1-1.738 5 5.774 5.774 0 0 1-4.161 1.53zm.243-15.6a3.819 3.819 0 0 0 0 7.609h-.01.015a3.509 3.509 0 0 0 3.347-3.8 3.541 3.541 0 0 0-3.347-3.805zm63.815 15.291h-2.876l2.8-6.209-4.909-11.179h2.949l3.274 7.993h.089l3.155-7.993h3.069l-7.551 17.387zm-45.911-5.22a6.135 6.135 0 0 1-6.134-6.268 5.9 5.9 0 0 1 5.889-6.269h.01a5.932 5.932 0 0 1 5.368 4l.311.664-8.393 3.463a3.186 3.186 0 0 0 2.917 1.9h.128A3.6 3.6 0 0 0 74.99 15.3l2.138 1.475a6.228 6.228 0 0 1-5.19 2.773h-.12zm.016-10.108c-.054 0-.109 0-.162.005A3.434 3.434 0 0 0 68.4 13.1l5.6-2.327a2.419 2.419 0 0 0-2.165-1.332zM40.243 19.548a6.268 6.268 0 0 1-.029-12.537h.118a6.14 6.14 0 0 1 4.359 1.8 6.306 6.306 0 0 1-4.439 10.738zM39.95 9.484a3.805 3.805 0 1 0 0 7.61c.088 0 .178 0 .266-.009a3.626 3.626 0 0 0 3.539-3.8 3.8 3.8 0 0 0-3.8-3.8zM26.5 19.548a6.268 6.268 0 0 1-.015-12.536h.1a6.146 6.146 0 0 1 4.361 1.8A6.306 6.306 0 0 1 26.5 19.548zm-.3-10.063a3.8 3.8 0 0 0 0 7.61c.094 0 .189 0 .282-.01h-.015a3.629 3.629 0 0 0 3.54-3.8 3.8 3.8 0 0 0-3.8-3.8zM10.529 19.5c-.133 0-.268 0-.4-.009s-.255.007-.382.007a9.748 9.748 0 0 1 0-19.5c.127 0 .255 0 .382.007h.083a9.329 9.329 0 0 1 6.6 2.757l-1.876 1.875a6.751 6.751 0 0 0-4.712-1.9h-.11a7.079 7.079 0 0 0 0 14.158c.086 0 .173.005.259.005a6.559 6.559 0 0 0 4.652-1.952A5.579 5.579 0 0 0 16.5 11.6h-6.371V8.944l8.953-.074a8.793 8.793 0 0 1 .147 1.667 8.808 8.808 0 0 1-2.3 6.224 8.886 8.886 0 0 1-6.4 2.739zm95.411-.012a4.262 4.262 0 0 1-4.256-4.067c0-2.692 2.735-4.145 5.309-4.145h.024a6.113 6.113 0 0 1 2.852.709v-.195a2.657 2.657 0 0 0-2.951-2.375 2.487 2.487 0 0 0-.212-.009 2.611 2.611 0 0 0-2.3 1.366l-2.448-1.018a5.136 5.136 0 0 1 4.6-2.826c.1 0 .208 0 .311.009l.073.044c3.344 0 5.591 2.051 5.591 5.1v7.093h-2.655V17.7h-.078a3.863 3.863 0 0 1-3.26 1.779c-.093 0-.187 0-.28-.01s-.215.017-.32.017zm1.511-5.971h-.119c-1.426 0-2.949.515-2.949 1.962 0 1.139 1.321 1.564 2.153 1.564l.074.044a3.345 3.345 0 0 0 3.229-2.949 4.906 4.906 0 0 0-2.388-.624zm-7.271 5.665h-2.758V.744h2.758v18.434zm-14.144 0h-2.758V.744h6.607c.137-.01.275-.015.412-.015a5.737 5.737 0 0 1 4.9 8.723 5.768 5.768 0 0 1-4.9 2.75c-.137 0-.276 0-.413-.015h-3.848v6.989zM86.022 3.31v6.283h3.849l.058.044a3.164 3.164 0 1 0 0-6.327zM64.341 19.179h-2.756V.744h2.757v18.434z" class="cls-2" data-name="Google Play" transform="translate(64.098 32.353)"/>
        <path id="GET_IT_ON" d="M4.766 9.258h-.154a4.645 4.645 0 0 1-3.26-7.919A4.446 4.446 0 0 1 4.511.008h.12a4.544 4.544 0 0 1 1.794.369 3.685 3.685 0 0 1 1.387.989l-.782.782A2.943 2.943 0 0 0 4.773 1.1h-.181a3.422 3.422 0 0 0-3.416 3.54 3.48 3.48 0 0 0 5.9 2.551 2.8 2.8 0 0 0 .738-1.8h-3.2V4.33H8.9a3.6 3.6 0 0 1 .058.664 4.008 4.008 0 0 1-1.102 2.949 4.31 4.31 0 0 1-3.09 1.315zm39.577-.006A4.571 4.571 0 0 1 41.1 7.913a4.779 4.779 0 0 1 0-6.562 4.57 4.57 0 0 1 6.488 0 4.758 4.758 0 0 1 0 6.562 4.571 4.571 0 0 1-3.246 1.339zm0-8.142a3.384 3.384 0 0 0-2.4.992 3.763 3.763 0 0 0 0 5.074 3.407 3.407 0 0 0 4.808 0 3.763 3.763 0 0 0 0-5.074 3.385 3.385 0 0 0-2.409-.992zm7.3 7.956h-1.151V.215h1.387L56.185 7.1V.215h1.136v8.848h-1.18l-4.5-7.211v7.212zm-18.037 0h-1.135v-7.76h-2.478V.215h6.076v1.091h-2.463v7.757zm-5.044 0h-1.135V.215h1.135v8.848zm-8.008 0h-1.136v-7.76h-2.477V.215h6.149v1.091h-2.536v7.757zm-4.838 0h-5.162V.215h5.162v1.091h-3.982v2.8h3.629v1.065h-3.629v2.8h3.982v1.09z" class="cls-3" data-name="GET IT ON" transform="translate(64.792 17.397)"/>
        <g id="Icon" transform="translate(18.523 17.81)">
            <path id="Shape" d="M.684.1a2.95 2.95 0 0 0-.679 2.068V34.79a2.95 2.95 0 0 0 .678 2.065l.1.1L19.06 18.7v-.428L.787 0z" class="cls-4" transform="translate(.009 .495)"/>
            <path id="Shape-2" d="M6.047 12.624L0 6.533v-.427L6.047 0l.133.074 7.241 4.115c2.065 1.165 2.065 3.082 0 4.262l-7.212 4.1z" class="cls-5" data-name="Shape" transform="translate(19.069 12.662)"/>
            <path id="Shape-3" d="M24.6 6.224L18.376 0 0 18.376a2.4 2.4 0 0 0 3.068.088l21.546-12.24" class="cls-6" data-name="Shape" transform="translate(.693 18.974)"/>
            <path id="Shape-4" d="M24.614 12.751L3.068.51A2.4 2.4 0 0 0 0 .6l18.391 18.374z" class="cls-7" data-name="Shape" transform="translate(.678)"/>
            <path id="Shape-5" d="M24.423 0L3.053 12.167a2.463 2.463 0 0 1-2.95 0l-.1.1.1.1a2.448 2.448 0 0 0 2.95 0L24.6.133z" class="cls-8" data-name="Shape" transform="translate(.693 25.065)"/>
            <path id="Shape-6" d="M.684 18.391A2.951 2.951 0 0 1 0 16.431a3 3 0 0 0 .684 1.739l.1.118-.1.1zM25.239 6.224l-.132-.132 7.375-4.174A2.724 2.724 0 0 0 33.955 0a2.591 2.591 0 0 1-1.475 2.124l-7.241 4.1z" class="cls-9" data-name="Shape" transform="translate(.009 18.974)"/>
            <path id="Shape-7" d="M3.746.7L32.49 17.04a2.743 2.743 0 0 1 1.475 1.917 2.581 2.581 0 0 0-1.475-2.124L3.746.492C1.681-.673 0 .3 0 2.66v.221C.044.507 1.7-.466 3.746.7z" class="cls-10" data-name="Shape" transform="translate(0 .017)"/>
        </g>
    </g>
</svg>
